<?xml version="1.0" standalone="no"?>
<!DOCTYPE svg PUBLIC "-//W3C//DTD SVG 20010904//EN"
 "http://www.w3.org/TR/2001/REC-SVG-20010904/DTD/svg10.dtd">
<svg version="1.0" xmlns="http://www.w3.org/2000/svg"
 width="128.000000pt" height="128.000000pt" viewBox="0 0 128.000000 128.000000"
 preserveAspectRatio="xMidYMid meet">
<metadata>
Created by potrace 1.11, written by Peter Selinger 2001-2013
</metadata>
<g transform="translate(0.000000,128.000000) scale(0.100000,-0.100000)"
fill="#000000" stroke="none">
<path d="M637 1198 c-181 -21 -346 -193 -363 -379 -3 -41 -18 -94 -41 -146
-19 -45 -33 -89 -29 -98 3 -8 30 -26 61 -39 l55 -25 0 -98 c0 -90 7 -126 24
-124 3 1 35 1 71 1 l64 0 3 -102 3 -103 204 -3 c153 -2 206 1 212 10 4 7 8 72
8 145 l1 134 34 30 c65 56 126 168 141 254 18 110 5 204 -40 300 -79 166 -240
262 -408 243z m138 -67 c65 -18 146 -82 191 -150 115 -171 92 -391 -55 -537
l-56 -55 -2 -100 c0 -54 -2 -112 -2 -127 l-1 -29 -157 1 -158 1 0 95 c-1 52
-4 101 -8 108 -5 8 -34 12 -81 12 l-72 0 1 82 c0 46 -1 90 -3 99 -2 9 -27 27
-55 40 -29 13 -53 24 -55 25 -2 1 10 29 27 63 18 35 31 76 31 98 0 89 49 208
114 276 91 97 216 133 341 98z"/>
<path d="M720 1015 c0 -17 -6 -25 -17 -26 -10 -1 -56 -2 -103 -2 l-84 -2 -6
-30 c-3 -16 -5 -93 -4 -169 1 -172 2 -174 124 -175 75 0 82 -2 104 -27 18 -22
28 -26 49 -20 51 12 59 71 14 95 -21 11 -23 19 -22 102 l0 89 36 0 c21 0 39 6
41 13 2 6 4 48 3 92 l-1 80 -67 3 c-66 3 -67 2 -67 -23z m80 -78 c0 -25 -4
-37 -9 -31 -11 11 -21 70 -14 78 13 13 23 -8 23 -47z m-135 -57 c0 -20 -5 -25
-25 -25 -19 0 -24 5 -25 26 -2 22 2 26 24 25 21 -1 26 -6 26 -26z m83 -216 c0
-24 -1 -24 -104 -24 -86 0 -104 3 -104 15 0 8 0 18 0 23 0 8 141 19 181 14 20
-3 27 -10 27 -28z"/>
</g>
</svg>
